<svg width="8" height="16" viewBox="0 0 8 16" fill="none" xmlns="http://www.w3.org/2000/svg">
    <path d="M7.999 2.358V.232c0-.017.004-.035-.016-.052-.038-.007-.082-.015-.124-.021a21.28 21.28 0 0 0-.6-.076A13.8 13.8 0 0 0 6.001.001a5.058 5.058 0 0 0-.907.069 3.694 3.694 0 0 0-.878.264 2.917 2.917 0 0 0-1.192.966 3.285 3.285 0 0 0-.496 1.065c-.062.229-.104.462-.127.698a5.696 5.696 0 0 0-.028.537v1.979c0 .02.005.04-.016.062l-.09.001H.094c-.03 0-.059-.007-.091.011L0 5.755v2.508c0 .017-.004.035.016.052l.082.002h2.174c.03 0 .063-.007.098.01l.002.104V16h2.924V8.37c0-.016-.003-.034.02-.051h2.081c.025 0 .052.007.08-.014l.392-2.523c.007-.042.011-.085.017-.13-.034-.013-.066-.008-.097-.008H5.354c-.017 0-.036.004-.05-.012-.01-.018-.006-.039-.006-.058v-1.71c0-.166.024-.329.074-.488.121-.394.375-.666.769-.807.166-.06.338-.09.513-.1.085-.006.17-.005.254-.005h.999c.028 0 .058.008.086-.01.011-.032.006-.064.006-.096z" fill="#fff"/>
</svg>
