<?xml version="1.0" encoding="utf-8"?>
<!-- Generator: Adobe Illustrator 16.0.0, SVG Export Plug-In . SVG Version: 6.00 Build 0)  -->
<!DOCTYPE svg PUBLIC "-//W3C//DTD SVG 1.1//EN" "http://www.w3.org/Graphics/SVG/1.1/DTD/svg11.dtd">
<svg version="1.1" id="Layer_1" xmlns="http://www.w3.org/2000/svg" xmlns:xlink="http://www.w3.org/1999/xlink" x="0px" y="0px"
	 width="16px" height="17px" viewBox="0 0 16 17" enable-background="new 0 0 16 17" xml:space="preserve">
<path opacity="0.3" fill="#FFFFFF" d="M11.052,0.288c2.592,0.003,4.692,2.103,4.695,4.694v6.357
	c-0.003,2.592-2.103,4.692-4.695,4.695H4.695C2.104,16.031,0.003,13.932,0,11.34V4.982c0.003-2.591,2.103-4.69,4.694-4.694H11.052z
	 M11.052,14.895c1.963-0.002,3.554-1.593,3.556-3.556V4.982c-0.002-1.962-1.594-3.552-3.556-3.554H4.695
	C2.733,1.43,1.143,3.02,1.14,4.982v6.357c0.001,1.963,1.592,3.554,3.555,3.556H11.052z"/>
<path opacity="0.3" fill="#FFFFFF" d="M5.111,5.4c1.526-1.523,3.999-1.523,5.524,0c1.523,1.526,1.523,3.998,0,5.524
	c-1.525,1.523-3.998,1.523-5.524,0C3.588,9.397,3.588,6.926,5.111,5.4z M9.828,10.116c1.077-1.081,1.077-2.83,0-3.91
	c-1.08-1.078-2.83-1.078-3.91,0c-1.077,1.081-1.077,2.829,0,3.91C6.999,11.193,8.748,11.193,9.828,10.116z"/>
</svg>
