<svg width="16" height="17" viewBox="0 0 16 17" fill="none" xmlns="http://www.w3.org/2000/svg">
    <path d="M11.052.288a4.7 4.7 0 0 1 4.695 4.694v6.357a4.7 4.7 0 0 1-4.695 4.695H4.695A4.7 4.7 0 0 1 0 11.34V4.982A4.7 4.7 0 0 1 4.694.288h6.358zm0 14.606a3.558 3.558 0 0 0 3.555-3.555V4.982a3.558 3.558 0 0 0-3.555-3.554H4.695A3.559 3.559 0 0 0 1.14 4.982v6.357a3.558 3.558 0 0 0 3.555 3.555h6.357z" fill="#fff"/>
    <path d="M5.111 5.4a3.91 3.91 0 0 1 5.524 0 3.91 3.91 0 0 1 0 5.524 3.91 3.91 0 0 1-5.524 0 3.91 3.91 0 0 1 0-5.524zm4.717 4.716a2.769 2.769 0 0 0 0-3.91 2.769 2.769 0 0 0-3.91 0 2.769 2.769 0 0 0 0 3.91 2.769 2.769 0 0 0 3.91 0z" fill="#fff"/>
</svg>
