<svg width="18" height="16" viewBox="0 0 18 16" fill="none" xmlns="http://www.w3.org/2000/svg">
    <path fill-rule="evenodd" clip-rule="evenodd" d="M4.086 16V5.204H.228V16h3.858zM2.158 3.73c1.345 0 2.183-.83 2.183-1.865C4.315.806 3.502 0 2.183 0 .863 0 0 .806 0 1.866 0 2.9.837 3.73 2.132 3.73h.026zM6.221 16h3.858V9.971c0-.322.026-.645.127-.875.279-.644.914-1.313 1.98-1.313 1.396 0 1.955.991 1.955 2.442V16h3.858V9.81c0-3.316-1.903-4.86-4.442-4.86-2.082 0-2.996 1.083-3.503 1.82h.025V5.204H6.221c.051 1.013 0 10.796 0 10.796z" fill="#fff"/>
</svg>
