<?xml version="1.0" encoding="utf-8"?>
<!-- Generator: Adobe Illustrator 16.0.0, SVG Export Plug-In . SVG Version: 6.00 Build 0)  -->
<!DOCTYPE svg PUBLIC "-//W3C//DTD SVG 1.1//EN" "http://www.w3.org/Graphics/SVG/1.1/DTD/svg11.dtd">
<svg version="1.1" id="Layer_1" xmlns="http://www.w3.org/2000/svg" xmlns:xlink="http://www.w3.org/1999/xlink" x="0px" y="0px"
	 width="12px" height="13.833px" viewBox="0 0 12 13.833" enable-background="new 0 0 12 13.833" xml:space="preserve">
<path fill="#02647E" d="M1.414,2.215c0.512-0.511,1.34-0.51,1.852,0.001c0.037,0.038,0.073,0.079,0.106,0.121l1.346,1.73
	c0.246,0.317,0.333,0.73,0.236,1.12L4.544,6.83C4.501,7.003,4.551,7.186,4.677,7.313L6.52,9.155C6.646,9.282,6.83,9.333,7.003,9.288
	l1.642-0.41c0.391-0.096,0.803-0.01,1.121,0.236l1.729,1.346c0.621,0.484,0.678,1.402,0.122,1.959l-0.776,0.775
	c-0.555,0.555-1.384,0.799-2.157,0.527c-1.979-0.697-3.775-1.83-5.258-3.316C1.94,8.924,0.808,7.127,0.111,5.148
	C-0.16,4.375,0.084,3.545,0.641,2.99L1.414,2.215L1.414,2.215z"/>
</svg>
